<?xml version="1.0" encoding="UTF-8"?>
<!DOCTYPE svg PUBLIC "-//W3C//DTD SVG 1.1//EN" "http://www.w3.org/Graphics/SVG/1.1/DTD/svg11.dtd">
<!-- Creator: CorelDRAW 2019 (64-Bit) -->
<svg xmlns="http://www.w3.org/2000/svg" xml:space="preserve" width="176.167mm" height="25.643mm" version="1.1" style="shape-rendering:geometricPrecision; text-rendering:geometricPrecision; image-rendering:optimizeQuality; fill-rule:evenodd; clip-rule:evenodd"
viewBox="0 0 17616.74 2564.3"
 xmlns:xlink="http://www.w3.org/1999/xlink">
 <defs>
  <style type="text/css">
   <![CDATA[
    .fil4 {fill:#E31E24}
    .fil5 {fill:#0C54A0}
    .fil0 {fill:#E31E24;fill-rule:nonzero}
    .fil2 {fill:#E31E24;fill-rule:nonzero}
    .fil1 {fill:#0C54A0;fill-rule:nonzero}
    .fil3 {fill:#0C54A0;fill-rule:nonzero}
   ]]>
  </style>
 </defs>
 <g id="Слой_x0020_1">
  <metadata id="CorelCorpID_0Corel-Layer"/>
  <g id="_5673612112">
   <g>
    <g>
     <polygon class="fil0" points="16844.26,2233.19 16844.26,2397.52 17616.74,2108.31 16844.26,1819.11 16844.26,1983.44 7397.36,1983.44 7397.36,2233.19 "/>
     <path class="fil1" d="M4635.9 2233.18l776.3 0 0 -249.75 -776.3 0 0 249.75zm1086.84 0l1674.62 0 0 -249.75 -1674.62 0 0 249.75zm-2846.24 0l206.77 0 0 -249.75 -206.77 0 0 249.75zm362.04 0l310.52 0 0 -249.75 -310.52 0 0 249.75zm465.79 0l621.03 0 0 -249.75 -621.03 0 0 249.75z"/>
    </g>
    <g>
     <path class="fil2" d="M3745.26 1460.1l-367.63 -469.93c-15.02,-19.65 -30.62,-43.06 -46.82,-70.23 -16.18,-27.16 -24.27,-54.05 -24.27,-80.64 0,-23.12 6.06,-46.82 18.2,-71.09 12.15,-24.27 24.58,-45.67 37.28,-64.16l326.01 -457.79 464.73 0 -421.37 501.15c-23.12,26.58 -37.29,46.81 -42.5,60.68 -5.2,13.89 -7.8,23.7 -7.8,29.49 0,19.64 7.52,39.31 22.55,58.95 15.03,19.66 28.9,36.41 41.62,50.3l471.65 513.27 -471.65 0zm-868.76 -1213.84l391.88 0 0 1213.84 -391.88 0 0 -1213.84zm1666.4 754.31c0,50.87 3.77,88.15 11.29,111.85 7.52,23.69 14.72,40.18 21.67,49.42 1.16,2.31 4.91,6.94 11.26,13.88 6.37,6.92 15.61,13.87 27.75,20.81 12.15,6.92 27.18,13.29 45.08,19.07 17.92,5.77 40.19,8.66 66.77,8.66 46.25,0 80.63,-7.52 103.18,-22.53 22.53,-15.03 37.85,-28.32 45.94,-39.89 13.89,-19.65 23.12,-43.06 27.75,-70.23 4.63,-27.16 6.95,-57.51 6.95,-91.04 0,-48.54 -3.18,-84.96 -9.55,-109.25 -6.35,-24.27 -14.15,-42.76 -23.41,-55.48 -9.24,-11.57 -24.84,-24.27 -46.82,-38.15 -21.95,-13.87 -56.65,-20.81 -104.04,-20.81 -47.39,0 -82.07,6.94 -104.04,20.81 -21.96,13.88 -37.57,26.58 -46.82,38.15 -5.78,9.24 -12.72,25.44 -20.81,48.56 -8.09,23.1 -12.15,61.83 -12.15,116.17zm183.82 -469.93c35.84,0 72.83,0.88 110.99,2.6 38.13,1.74 75.14,5.51 110.96,11.28 35.84,5.78 69.66,15.04 101.46,27.73 31.79,12.72 60.4,30.07 85.84,52.05 28.9,25.41 51.43,55.19 67.63,89.29 16.18,34.1 28.3,68.49 36.41,103.18 8.09,34.68 13.01,68.21 14.73,100.57 1.74,32.38 2.6,60.11 2.6,83.23 0,23.12 -0.86,50.87 -2.6,83.23 -1.72,32.38 -6.64,65.91 -14.73,100.59 -8.11,34.67 -20.23,69.08 -36.41,103.18 -16.2,34.1 -38.73,63.86 -67.63,89.29 -25.44,21.96 -54.05,39.31 -85.84,52.03 -31.8,12.71 -65.62,21.95 -101.46,27.75 -35.82,5.77 -72.83,9.52 -110.96,11.26 -38.16,1.74 -75.15,2.6 -110.99,2.6 -36.99,0 -74.26,-0.86 -111.85,-2.6 -37.56,-1.74 -74.26,-5.49 -110.1,-11.26 -35.84,-5.8 -69.66,-15.04 -101.44,-27.75 -31.81,-12.72 -60.42,-30.07 -85.84,-52.03 -28.9,-25.43 -51.45,-55.19 -67.63,-89.29 -16.2,-34.1 -28.32,-68.51 -36.41,-103.18 -8.09,-34.68 -13.01,-68.21 -14.75,-100.59 -1.74,-32.36 -2.6,-60.11 -2.6,-83.23 0,-23.12 0.86,-50.85 2.6,-83.23 1.74,-32.36 6.66,-65.89 14.75,-100.57 8.09,-34.69 20.21,-69.08 36.41,-103.18 16.18,-34.1 38.73,-63.88 67.63,-89.29 25.42,-21.98 54.03,-39.33 85.84,-52.05 31.78,-12.69 65.6,-21.95 101.44,-27.73 35.84,-5.77 72.54,-9.54 110.1,-11.28 37.59,-1.72 74.86,-2.6 111.85,-2.6zm1432.33 849.69c-6.95,19.66 -15.9,35.55 -26.89,47.7 -10.98,12.12 -23.41,21.38 -37.28,27.73 -13.86,6.37 -28.9,10.4 -45.08,12.14 -16.18,1.74 -32.95,2.6 -50.3,2.6 -17.32,0 -34.1,-0.86 -50.28,-2.6 -16.18,-1.74 -31.21,-5.77 -45.08,-12.14 -13.88,-6.35 -26.29,-15.61 -37.29,-27.73 -10.98,-12.15 -19.93,-28.04 -26.87,-47.7l-145.66 -410.97c-5.78,-16.18 -12.15,-24.27 -19.07,-24.27 -8.09,0 -12.15,6.94 -12.15,20.81l17.35 494.2 -339.88 0 0 -754.31c0,-30.07 6.94,-56.08 20.81,-78.03 13.87,-21.98 32.36,-40.19 55.48,-54.63 23.13,-14.46 49.14,-25.15 78.03,-32.09 28.9,-6.92 58.97,-10.4 90.18,-10.4 63.59,0 114.45,10.71 152.6,32.09 38.14,21.38 66.47,58.08 84.96,110.1l143.94 398.85c9.24,26.58 20.23,39.88 32.93,39.88 12.72,0 23.72,-13.3 32.96,-39.88l143.93 -398.85c18.5,-52.02 46.82,-88.72 84.96,-110.1 38.16,-21.38 89.01,-32.09 152.6,-32.09 31.22,0 61.26,3.48 90.18,10.4 28.9,6.94 54.91,17.63 78.03,32.09 23.1,14.44 41.62,32.65 55.48,54.63 13.87,21.95 20.81,47.96 20.81,78.03l0 754.31 -339.88 0 17.35 -495.95c0,-9.23 -1.45,-15.03 -4.34,-17.32 -2.89,-2.32 -5.49,-3.48 -7.8,-3.48 -6.93,0 -13.3,8.09 -19.07,24.29l-145.66 412.69z"/>
     <path class="fil3" d="M7604.12 1380.33c-6.95,19.66 -15.9,35.55 -26.9,47.7 -10.97,12.12 -23.41,21.38 -37.27,27.73 -13.87,6.37 -28.9,10.4 -45.08,12.14 -16.18,1.74 -32.95,2.6 -50.3,2.6 -17.33,0 -34.1,-0.86 -50.28,-2.6 -16.18,-1.74 -31.21,-5.77 -45.08,-12.14 -13.89,-6.35 -26.3,-15.61 -37.3,-27.73 -10.97,-12.15 -19.92,-28.04 -26.87,-47.7l-145.66 -410.97c-5.77,-16.18 -12.14,-24.27 -19.06,-24.27 -8.09,0 -12.15,6.94 -12.15,20.81l17.35 494.2 -339.88 0 0 -754.31c0,-30.07 6.94,-56.08 20.81,-78.03 13.86,-21.98 32.36,-40.19 55.48,-54.63 23.12,-14.46 49.13,-25.15 78.03,-32.09 28.9,-6.92 58.97,-10.4 90.18,-10.4 63.59,0 114.45,10.71 152.6,32.09 38.14,21.38 66.46,58.08 84.96,110.1l143.94 398.85c9.23,26.58 20.23,39.88 32.93,39.88 12.72,0 23.72,-13.3 32.95,-39.88l143.94 -398.85c18.5,-52.02 46.82,-88.72 84.96,-110.1 38.15,-21.38 89.01,-32.09 152.6,-32.09 31.21,0 61.26,3.48 90.18,10.4 28.9,6.94 54.91,17.63 78.03,32.09 23.1,14.44 41.62,32.65 55.48,54.63 13.87,21.95 20.81,47.96 20.81,78.03l0 754.31 -339.88 0 17.35 -495.95c0,-9.23 -1.46,-15.03 -4.34,-17.32 -2.89,-2.32 -5.49,-3.48 -7.81,-3.48 -6.92,0 -13.29,8.09 -19.07,24.29l-145.65 412.69zm1167.01 376.29l-339.88 0 143.92 -296.52 -436.98 -919.06 362.43 0 234.1 563.57 246.22 -563.57 339.88 0 -549.69 1215.58zm1225.99 -296.52l0 -350.29 -301.73 0 0 350.29 -339.88 0 0 -919.06 339.88 0 0 322.55 301.73 0 0 -322.55 339.88 0 0 919.06 -339.88 0zm1163.56 0l17.32 -476.86c0,-6.94 -0.57,-13.31 -1.72,-19.09 -1.16,-5.77 -5.2,-8.66 -12.14,-8.66 -5.78,0 -10.98,2.89 -15.61,8.66 -4.63,5.78 -9.83,12.15 -15.61,19.09l-325.99 407.49c-13.89,17.35 -27.18,31.5 -39.9,42.5 -12.69,10.98 -25.7,19.07 -39.01,24.27 -13.29,5.2 -27.45,8.66 -42.48,10.4 -15.03,1.74 -31.79,2.6 -50.28,2.6 -18.49,0 -39.02,-1.45 -61.57,-4.34 -22.54,-2.89 -43.64,-10.4 -63.28,-22.53 -19.66,-12.14 -36.13,-29.49 -49.42,-52.02 -13.29,-22.55 -19.95,-54.05 -19.95,-94.52l0 -756.05 339.88 0 -17.35 476.88c0,8.09 0.86,14.44 2.6,19.06 1.74,4.63 6.07,6.95 13.01,6.95 6.94,0 13,-3.18 18.21,-9.55 5.2,-6.35 9.54,-11.83 13,-16.46l332.94 -417.92c6.94,-8.08 14.17,-16.46 21.67,-25.15 7.51,-8.66 17.34,-16.18 29.49,-22.52 12.12,-6.37 26.58,-11.58 43.34,-15.61 16.77,-4.06 38.44,-6.08 65.04,-6.08 48.54,0 86.13,7.51 112.71,22.55 26.58,15.03 46.25,32.38 58.97,52.02 12.69,19.66 20.21,39.89 22.52,60.7 2.32,20.81 3.49,36.99 3.49,48.54l0 745.65 -339.88 0zm1132.34 0l-268.79 -369.35c-10.4,-15.04 -20.5,-31.22 -30.33,-48.56 -9.83,-17.33 -14.75,-35.25 -14.75,-53.75 0,-16.2 4.92,-34.12 14.75,-53.76 9.83,-19.66 23.41,-42.19 40.73,-67.63l225.44 -326.01 374.55 0 -272.25 350.28c-33.51,43.94 -50.28,75.72 -50.28,95.38 0,13.87 4.34,27.76 13,41.62 8.67,13.87 17.64,26.59 26.88,38.16l322.55 393.62 -381.5 0zm-688.42 0l0 -919.06 339.88 0 0 919.06 -339.88 0zm1453.14 -360.69c-5.78,0 -13.58,0.88 -23.41,2.6 -9.81,1.74 -18.79,6.08 -26.88,13.01 -5.77,5.77 -9.54,12.43 -11.26,19.94 -1.74,7.52 -2.6,15.32 -2.6,23.41 0,6.95 0.86,13.87 2.6,20.81 1.72,6.95 5.49,13.29 11.26,19.07 5.78,5.8 13.01,9.83 21.67,12.15 8.69,2.31 17.06,3.46 25.15,3.46l176.88 0c9.25,0 18.49,-0.86 27.75,-2.6 9.23,-1.72 16.75,-4.92 22.53,-9.53 8.11,-5.79 13,-12.72 14.74,-20.81 1.74,-8.09 2.6,-16.2 2.6,-24.29l0 -57.22 -241.03 0zm267.05 -558.37c56.65,0 103.75,8.4 141.31,25.15 37.59,16.77 66.2,34.98 85.86,54.62 18.49,18.5 33.51,39.02 45.08,61.57 11.55,22.55 20.52,45.08 26.87,67.63 6.37,22.55 10.4,45.08 12.14,67.62 1.74,22.55 2.6,43.06 2.6,61.57l0 384.96c0,24.27 -2.31,49.42 -6.94,75.43 -4.63,26.01 -17.33,49.99 -38.13,71.95 -21.98,23.12 -46.82,37.01 -74.58,41.62 -27.75,4.62 -54.9,6.94 -81.51,6.94l-541.02 0c-28.9,0 -58.08,-2.32 -87.56,-6.94 -29.49,-4.61 -56.36,-18.5 -80.63,-41.62 -17.35,-16.18 -31.21,-35.25 -41.62,-57.23 -10.4,-21.95 -17.92,-44.79 -22.55,-68.48 -4.62,-23.7 -7.51,-47.11 -8.66,-70.23 -1.17,-23.13 -1.74,-43.93 -1.74,-62.43 0,-19.66 0.86,-40.18 2.6,-61.56 1.74,-21.39 5.2,-42.48 10.4,-63.29 5.21,-20.81 13.01,-40.47 23.41,-58.96 10.41,-18.5 24.87,-34.68 43.36,-48.54 25.42,-19.66 52.31,-31.22 80.64,-34.7 28.32,-3.46 55.76,-5.2 82.35,-5.2l402.3 0 0 -13.87c0,-8.09 -0.86,-17.63 -2.6,-28.61 -1.74,-10.97 -6.63,-21.67 -14.74,-32.07 -12.7,-17.35 -28.9,-27.75 -48.54,-31.21 -19.66,-3.48 -38.16,-5.2 -55.51,-5.2l-461.24 0 0 -228.92 608.65 0zm674.55 919.06l0 -676.28 -343.34 0 0 -242.78 1026.56 0 0 242.78 -343.34 0 0 676.28 -339.88 0zm1061.24 -459.53c0,50.87 3.77,88.15 11.28,111.85 7.52,23.69 14.73,40.18 21.67,49.42 1.17,2.31 4.92,6.94 11.27,13.88 6.37,6.92 15.6,13.87 27.75,20.81 12.14,6.92 27.18,13.29 45.08,19.07 17.92,5.77 40.18,8.66 66.76,8.66 46.25,0 80.64,-7.52 103.19,-22.53 22.53,-15.03 37.84,-28.32 45.93,-39.89 13.89,-19.65 23.13,-43.06 27.76,-70.23 4.62,-27.16 6.94,-57.51 6.94,-91.04 0,-48.54 -3.18,-84.96 -9.54,-109.25 -6.35,-24.27 -14.16,-42.76 -23.41,-55.48 -9.24,-11.57 -24.85,-24.27 -46.82,-38.15 -21.96,-13.87 -56.65,-20.81 -104.05,-20.81 -47.39,0 -82.06,6.94 -104.04,20.81 -21.95,13.88 -37.56,26.58 -46.82,38.15 -5.77,9.24 -12.72,25.44 -20.81,48.56 -8.09,23.1 -12.14,61.83 -12.14,116.17zm183.81 -469.93c35.85,0 72.83,0.88 110.99,2.6 38.13,1.74 75.14,5.51 110.96,11.28 35.85,5.78 69.66,15.04 101.47,27.73 31.78,12.72 60.39,30.07 85.83,52.05 28.9,25.41 51.43,55.19 67.63,89.29 16.18,34.1 28.3,68.49 36.41,103.18 8.09,34.68 13.01,68.21 14.73,100.57 1.74,32.38 2.6,60.11 2.6,83.23 0,23.12 -0.86,50.87 -2.6,83.23 -1.72,32.38 -6.64,65.91 -14.73,100.59 -8.11,34.67 -20.23,69.08 -36.41,103.18 -16.2,34.1 -38.73,63.86 -67.63,89.29 -25.44,21.96 -54.05,39.31 -85.83,52.03 -31.81,12.71 -65.62,21.95 -101.47,27.75 -35.82,5.77 -72.83,9.52 -110.96,11.26 -38.16,1.74 -75.14,2.6 -110.99,2.6 -36.98,0 -74.26,-0.86 -111.84,-2.6 -37.56,-1.74 -74.27,-5.49 -110.11,-11.26 -35.84,-5.8 -69.65,-15.04 -101.44,-27.75 -31.81,-12.72 -60.42,-30.07 -85.83,-52.03 -28.9,-25.43 -51.45,-55.19 -67.63,-89.29 -16.2,-34.1 -28.33,-68.51 -36.42,-103.18 -8.09,-34.68 -13,-68.21 -14.74,-100.59 -1.74,-32.36 -2.6,-60.11 -2.6,-83.23 0,-23.12 0.86,-50.85 2.6,-83.23 1.74,-32.36 6.65,-65.89 14.74,-100.57 8.09,-34.69 20.22,-69.08 36.42,-103.18 16.18,-34.1 38.73,-63.88 67.63,-89.29 25.41,-21.98 54.02,-39.33 85.83,-52.05 31.79,-12.69 65.6,-21.95 101.44,-27.73 35.84,-5.77 72.55,-9.54 110.11,-11.28 37.58,-1.72 74.86,-2.6 111.84,-2.6zm1102.86 683.22c36.98,0 65.31,-8.09 84.97,-24.27 19.64,-16.18 33.53,-31.79 41.62,-46.82 9.24,-18.5 15.03,-39.59 17.33,-63.29 2.31,-23.71 3.48,-50.59 3.48,-80.63 0,-26.61 -0.88,-50.88 -2.6,-72.83 -1.74,-21.98 -6.09,-42.21 -13.01,-60.71 -6.94,-18.49 -16.18,-32.93 -27.75,-43.33 -11.55,-10.41 -23.41,-18.21 -35.56,-23.41 -12.12,-5.21 -23.69,-8.4 -34.67,-9.55 -10.98,-1.16 -18.78,-1.74 -23.41,-1.74l-119.65 0c-3.46,0 -8.38,1.46 -14.74,4.34 -6.35,2.89 -10.7,5.49 -13.01,7.81 -8.09,8.09 -12.12,18.49 -12.12,31.21l0 383.22 149.12 0zm-149.12 541.02l-339.88 0 0 -1038.69c0,-26.58 3.74,-52.02 11.26,-76.29 7.52,-24.29 24.58,-46.24 51.16,-65.91 20.81,-15.03 42.19,-24.27 64.17,-27.75 21.95,-3.46 43.93,-5.2 65.88,-5.2l426.58 0c15.03,0 33.24,0.88 54.62,2.6 21.38,1.74 44.22,5.8 68.49,12.15 24.29,6.37 48.85,15.89 73.71,28.61 24.84,12.72 47.68,30.06 68.49,52.02 23.12,24.29 41.33,51.16 54.62,80.63 13.29,29.5 23.12,59.54 29.49,90.18 6.35,30.64 10.41,60.4 12.13,89.3 1.74,28.9 2.6,54.33 2.6,76.31 0,19.64 -0.57,44.79 -1.72,75.43 -1.17,30.62 -4.06,62.71 -8.68,96.24 -4.63,33.53 -12.13,67.03 -22.53,100.56 -10.41,33.53 -24.29,63.02 -41.62,88.44 -20.81,30.06 -44.53,53.47 -71.11,70.22 -26.58,16.78 -54.34,29.21 -83.23,37.3 -28.9,8.09 -57.23,13.29 -84.98,15.61 -27.73,2.31 -53.74,3.46 -78.03,3.46l-251.42 0 0 294.78z"/>
    </g>
   </g>
   <g>
    <path class="fil4" d="M2391.44 1215.22l-145.27 0 0 134.3 145.26 0c-12.04,200.79 -78.11,398.91 -198.25,570.45l-55.48 -56.34 13.82 241.57 223.98 0 -61.24 -62.21c378.67,-513.36 315.83,-1225.81 -125.72,-1667.39 -242.21,-242.19 -564.3,-375.6 -906.76,-375.6 -6.96,0 -13.92,0.05 -20.85,0.17l0 308.79 67.14 0 0 -137.92c256.76,10.45 498.06,107.65 689.95,277.56l-96.04 96.04 97.53 97.53 96.01 -96.02c163.66,185.18 261.09,421.78 275.92,669.07zm-1489.58 427.75l0 -671.22 -319.02 0 0 -222.04 926.45 0 0 222.04 -319.03 0 0 31.39 -231.49 0 0 297.39 231.49 0 0 342.44 -288.4 0z"/>
    <path class="fil5" d="M1260.93 0.18c-334.75,5.33 -648.69,138.12 -885.98,375.42 -499.93,500.01 -499.93,1313.51 0,1813.51 72.37,72.38 151.89,135.03 236.94,187.33l85.11 -147.43c-53.22,-33 -103.89,-70.7 -151.53,-112.88l96.05 -96.05 -97.52 -97.52 -96.03 96.02c-169.52,-191.77 -261.44,-428.5 -275.86,-669.06l145.09 0 0 -134.3 -145.09 0c14.4,-240.56 106.34,-477.3 275.86,-669.07l96.03 96.02 97.52 -97.53 -96.05 -96.04c181.47,-160.68 407.14,-256.34 648.3,-275.08l0 135.44 67.16 0 0 -308.78zm54.55 1933.9l0 -671.22 -319.03 0 0 -222.04 926.46 0 0 222.04 -319.03 0 0 671.22 -288.4 0zm-646.31 475.53c79.04,43.07 162.3,77.56 248.66,102.99l44.05 -164.42c-71.99,-21.51 -141.49,-50.28 -207.6,-85.99l-85.11 147.42zm312.68 120.04c86.58,20.66 175.88,32.36 266.76,34.65l0 -170.16c-75.82,-2.21 -150.34,-11.96 -222.69,-28.92l-44.07 164.43zm333.1 34.65c90.88,-2.3 180.16,-14 266.74,-34.65l-44.05 -164.43c-72.36,16.96 -146.87,26.71 -222.69,28.92l0 170.16zm330.77 -51.71c86.35,-25.43 169.66,-59.93 248.71,-103.04l-85.11 -147.41c-66.12,35.71 -135.65,64.51 -207.65,86.02l44.05 164.43zm305.87 -136.15c75.86,-46.63 147.29,-101.5 213.2,-164.17l-120.32 -120.33c-55.2,52.07 -114.82,97.89 -177.99,137.07l85.11 147.43z"/>
   </g>
  </g>
 </g>
</svg>
